<svg xmlns="http://www.w3.org/2000/svg" width="512" height="512" viewBox="0 0 512 512" role="img" aria-labelledby="title desc">
  <title id="title">Native Elixir PDF Utilities Icon</title>
  <desc id="desc">A cheerful PDF file mascot holding a magnifying glass toward a PDF logo document.</desc>
  <defs>
    <filter id="shadow" x="-18%" y="-20%" width="136%" height="150%">
      <feDropShadow dx="0" dy="18" stdDeviation="18" flood-color="#0f172a" flood-opacity="0.2"/>
    </filter>
  </defs>

  <rect width="512" height="512" rx="104" fill="#fff7ed"/>
  <path d="M0 300c76-34 150-24 222 30 82 62 179 67 290 12v170H0z" fill="#dff7fb"/>
  <path d="M0 378c82-19 161-8 238 33 82 44 174 41 274-8v109H0z" fill="#f3e8ff"/>

  <g filter="url(#shadow)">
    <path d="M132 356c28 14 62 14 90 0" fill="none" stroke="#263446" stroke-width="14" stroke-linecap="round"/>
    <path d="M116 68h158l56 56v264H116z" fill="#fffdf8" stroke="#263446" stroke-width="11" stroke-linejoin="round"/>
    <path d="M274 68v56h56" fill="#fed7aa" stroke="#263446" stroke-width="11" stroke-linejoin="round"/>
    <path d="M116 224c-48 2-80 24-96 66" fill="none" stroke="#263446" stroke-width="12" stroke-linecap="round"/>
    <circle cx="20" cy="290" r="18" fill="#fb923c" stroke="#263446" stroke-width="8"/>

    <rect x="152" y="164" width="70" height="18" rx="9" fill="#fb923c"/>
    <rect x="252" y="164" width="62" height="18" rx="9" fill="#2dd4bf"/>
    <circle cx="180" cy="218" r="15" fill="#f97316"/>
    <circle cx="280" cy="218" r="15" fill="#0f766e"/>
    <path d="M208 262c22 18 50 18 72 0" fill="none" stroke="#263446" stroke-width="10" stroke-linecap="round"/>
    <rect x="152" y="320" width="94" height="22" rx="11" fill="#c4b5fd"/>

    <g transform="translate(362 158)">
      <path d="M18 0h58l28 28v96H18z" fill="#ffffff" stroke="#111827" stroke-width="6" stroke-linejoin="round"/>
      <path d="M76 0v28h28" fill="#e5e7eb" stroke="#111827" stroke-width="6" stroke-linejoin="round"/>
      <rect x="34" y="44" width="58" height="38" rx="7" fill="#ef4444"/>
      <text x="40" y="70" font-family="Inter, Segoe UI, Arial, sans-serif" font-size="21" font-weight="900" fill="#ffffff">PDF</text>
      <path d="M36 96h54" stroke="#111827" stroke-width="6" stroke-linecap="round"/>
    </g>

    <g transform="translate(346 144)">
      <circle cx="74" cy="74" r="66" fill="#f8fafc" fill-opacity="0.78" stroke="#111827" stroke-width="14"/>
      <path d="M32 76c24-22 56-30 90-18" fill="none" stroke="#7c3aed" stroke-width="6" stroke-linecap="round"/>
      <path d="M54 126l-54 54" stroke="#111827" stroke-width="22" stroke-linecap="round"/>
      <path d="M54 126l-54 54" stroke="#f97316" stroke-width="10" stroke-linecap="round"/>
    </g>

    <path d="M316 370 C354 360 396 326 346 326" fill="none" stroke="#263446" stroke-width="12" stroke-linecap="round"/>
    <circle cx="346" cy="326" r="18" fill="#2dd4bf" stroke="#263446" stroke-width="8"/>
  </g>
</svg>
